<svg width="40" height="40" viewBox="0 0 40 40" fill="none" xmlns="http://www.w3.org/2000/svg">
<path d="M11.6668 20.0007C11.6668 20.9173 12.4168 21.6673 13.3335 21.6673H26.6668C27.5835 21.6673 28.3335 20.9173 28.3335 20.0007C28.3335 19.084 27.5835 18.334 26.6668 18.334H13.3335C12.4168 18.334 11.6668 19.084 11.6668 20.0007ZM20.0002 3.33398C10.8002 3.33398 3.3335 10.8007 3.3335 20.0007C3.3335 29.2007 10.8002 36.6673 20.0002 36.6673C29.2002 36.6673 36.6668 29.2007 36.6668 20.0007C36.6668 10.8007 29.2002 3.33398 20.0002 3.33398ZM20.0002 33.334C12.6502 33.334 6.66683 27.3507 6.66683 20.0007C6.66683 12.6507 12.6502 6.66732 20.0002 6.66732C27.3502 6.66732 33.3335 12.6507 33.3335 20.0007C33.3335 27.3507 27.3502 33.334 20.0002 33.334Z" fill="#BC4E4E"/>
</svg>
