<svg width="62" height="59" viewBox="0 0 62 59" fill="none" xmlns="http://www.w3.org/2000/svg">
<path fill-rule="evenodd" clip-rule="evenodd" d="M51.5036 38C54.7793 32.3055 49.6473 5.36008 31.1945 5.36008C12.7417 5.36008 5.93461 25.296 8.91999 37.8328C-0.251862 15.8909 12.7417 0 31.1945 0C49.6473 0 63.296 20.7273 51.5036 38ZM59.405 17.5C65.9056 32.8493 59.405 56 30.4584 58.5C2.27155 56.0321 -3.45052 33.4427 1.69862 18.095C-0.564206 25.4336 0.392095 51.593 30.4584 51.593C61.405 51.593 61.745 23.0251 59.405 17.5ZM1.90499 17.5C1.83388 17.6815 1.76487 17.8802 1.69862 18.095C1.76558 17.8954 1.83438 17.6971 1.90499 17.5ZM41.097 44.224C41.289 44.224 41.385 44.188 41.385 44.116C41.025 41.188 40.845 37.54 40.845 33.172C40.845 27.292 41.397 22.936 42.501 20.104L39.441 18.628L38.505 19.204C38.505 19.228 38.493 19.264 38.469 19.312C34.869 26.344 32.253 32.056 30.621 36.448C28.653 29.944 26.565 24.196 24.357 19.204L23.421 18.628L19.713 20.104L19.965 21.688C20.469 24.904 20.721 28.516 20.721 32.524C20.721 34.612 20.625 36.628 20.433 38.572C20.241 40.516 20.061 41.884 19.893 42.676L19.641 43.864C19.641 43.96 19.761 44.008 20.001 44.008C20.241 44.008 20.553 43.936 20.937 43.792C21.321 43.672 21.609 43.516 21.801 43.324C22.281 41.5 22.749 38.656 23.205 34.792C23.661 30.904 23.997 27.22 24.213 23.74C26.397 30.7 27.801 37.048 28.425 42.784L31.845 44.26L32.637 43.684L32.205 42.064C33.261 36.4 35.169 30.364 37.929 23.956C37.857 25.108 37.821 26.272 37.821 27.448C37.821 31.96 38.445 37.372 39.693 43.684C40.005 44.044 40.473 44.224 41.097 44.224Z" fill="url(#paint0_linear_1_10)"/>
<defs>
<linearGradient id="paint0_linear_1_10" x1="30.8561" y1="0" x2="30.8561" y2="58.5" gradientUnits="userSpaceOnUse">
<stop stop-color="white"/>
<stop offset="0.0001" stop-color="white"/>
<stop offset="0.317708" stop-color="#C6C6C6"/>
<stop offset="0.385417" stop-color="#AFAFAF"/>
<stop offset="0.692708" stop-color="#7E7E7E"/>
<stop offset="0.927083" stop-color="#6D6D6D"/>
<stop offset="1" stop-color="#868686"/>
</linearGradient>
</defs>
</svg>
