<svg width="62" height="59" viewBox="0 0 62 59" fill="none" xmlns="http://www.w3.org/2000/svg">
<path fill-rule="evenodd" clip-rule="evenodd" d="M51.5986 38C54.8743 32.3055 49.7423 5.36008 31.2895 5.36008C12.8367 5.36008 6.02962 25.296 9.015 37.8328C-0.156852 15.8909 12.8367 0 31.2895 0C49.7423 0 63.391 20.7273 51.5986 38ZM59.5 17.5C66.0006 32.8493 59.5 56 30.5534 58.5C2.36656 56.0321 -3.35551 33.4427 1.79363 18.095C-0.469197 25.4336 0.487104 51.593 30.5534 51.593C61.5 51.593 61.84 23.0251 59.5 17.5ZM2 17.5C1.92888 17.6815 1.85988 17.8802 1.79363 18.095C1.86059 17.8954 1.92939 17.6971 2 17.5ZM41.192 44.224C41.384 44.224 41.48 44.188 41.48 44.116C41.12 41.188 40.94 37.54 40.94 33.172C40.94 27.292 41.492 22.936 42.596 20.104L39.536 18.628L38.6 19.204C38.6 19.228 38.588 19.264 38.564 19.312C34.964 26.344 32.348 32.056 30.716 36.448C28.748 29.944 26.66 24.196 24.452 19.204L23.516 18.628L19.808 20.104L20.06 21.688C20.564 24.904 20.816 28.516 20.816 32.524C20.816 34.612 20.72 36.628 20.528 38.572C20.336 40.516 20.156 41.884 19.988 42.676L19.736 43.864C19.736 43.96 19.856 44.008 20.096 44.008C20.336 44.008 20.648 43.936 21.032 43.792C21.416 43.672 21.704 43.516 21.896 43.324C22.376 41.5 22.844 38.656 23.3 34.792C23.756 30.904 24.092 27.22 24.308 23.74C26.492 30.7 27.896 37.048 28.52 42.784L31.94 44.26L32.732 43.684L32.3 42.064C33.356 36.4 35.264 30.364 38.024 23.956C37.952 25.108 37.916 26.272 37.916 27.448C37.916 31.96 38.54 37.372 39.788 43.684C40.1 44.044 40.568 44.224 41.192 44.224Z" fill="url(#paint0_linear_1_9)"/>
<defs>
<linearGradient id="paint0_linear_1_9" x1="30.9511" y1="0" x2="30.9511" y2="58.5" gradientUnits="userSpaceOnUse">
<stop stop-color="#03582A"/>
<stop offset="0.0001" stop-color="#024722"/>
<stop offset="0.385417" stop-color="#30925D"/>
<stop offset="0.692708" stop-color="#1E7445"/>
<stop offset="1" stop-color="#43B075"/>
</linearGradient>
</defs>
</svg>
