<svg width="304" height="57" viewBox="0 0 304 57" fill="none" xmlns="http://www.w3.org/2000/svg">
<path fill-rule="evenodd" clip-rule="evenodd" d="M51.5036 38C54.7793 32.3055 49.6473 5.36008 31.1945 5.36008C12.7417 5.36008 5.93461 25.296 8.91999 37.8328C-0.251861 15.8909 12.7417 0 31.1945 0C49.6473 0 63.296 20.7273 51.5036 38ZM59.405 17.5C65.9056 32.8493 59.405 54.5 30.4584 57C2.26651 54.5317 -3.45257 33.3968 1.70139 18.0861C-0.56498 25.4123 0.379851 51.593 30.4584 51.593C61.405 51.593 61.745 23.0251 59.405 17.5ZM1.90499 17.5C1.83486 17.6789 1.76679 17.8747 1.70139 18.0861C1.76747 17.8897 1.83535 17.6944 1.90499 17.5ZM41.097 44.224C41.289 44.224 41.385 44.188 41.385 44.116C41.025 41.188 40.845 37.54 40.845 33.172C40.845 27.292 41.397 22.936 42.501 20.104L39.441 18.628L38.505 19.204C38.505 19.228 38.493 19.264 38.469 19.312C34.869 26.344 32.253 32.056 30.621 36.448C28.653 29.944 26.565 24.196 24.357 19.204L23.421 18.628L19.713 20.104L19.965 21.688C20.469 24.904 20.721 28.516 20.721 32.524C20.721 34.612 20.625 36.628 20.433 38.572C20.241 40.516 20.061 41.884 19.893 42.676L19.641 43.864C19.641 43.96 19.761 44.008 20.001 44.008C20.241 44.008 20.553 43.936 20.937 43.792C21.321 43.672 21.609 43.516 21.801 43.324C22.281 41.5 22.749 38.656 23.205 34.792C23.661 30.904 23.997 27.22 24.213 23.74C26.397 30.7 27.801 37.048 28.425 42.784L31.845 44.26L32.637 43.684L32.205 42.064C33.261 36.4 35.169 30.364 37.929 23.956C37.857 25.108 37.821 26.272 37.821 27.448C37.821 31.96 38.445 37.372 39.693 43.684C40.005 44.044 40.473 44.224 41.097 44.224Z" fill="url(#paint0_linear_10_3)"/>
<path d="M103.48 40.116C103.48 40.188 103.384 40.224 103.192 40.224C102.568 40.224 102.1 40.044 101.788 39.684C100.54 33.372 99.916 27.96 99.916 23.448C99.916 22.272 99.952 21.108 100.024 19.956C97.264 26.364 95.356 32.4 94.3 38.064L94.732 39.684L93.94 40.26L90.52 38.784C89.896 33.048 88.492 26.7 86.308 19.74C86.092 23.22 85.756 26.904 85.3 30.792C84.844 34.656 84.376 37.5 83.896 39.324C83.704 39.516 83.416 39.672 83.032 39.792C82.648 39.936 82.336 40.008 82.096 40.008C81.856 40.008 81.736 39.96 81.736 39.864L81.988 38.676C82.156 37.884 82.336 36.516 82.528 34.572C82.72 32.628 82.816 30.612 82.816 28.524C82.816 24.516 82.564 20.904 82.06 17.688L81.808 16.104L85.516 14.628L86.452 15.204C88.66 20.196 90.748 25.944 92.716 32.448C94.348 28.056 96.964 22.344 100.564 15.312C100.588 15.264 100.6 15.228 100.6 15.204L101.536 14.628L104.596 16.104C103.492 18.936 102.94 23.292 102.94 29.172C102.94 33.54 103.12 37.188 103.48 40.116ZM121.507 22.548L119.779 24.528C121.123 26.16 121.795 28.212 121.795 30.684C121.795 34.164 120.679 36.84 118.447 38.712C117.271 39.696 115.819 40.188 114.091 40.188C112.387 40.188 110.923 39.504 109.699 38.136C108.499 36.768 107.899 34.884 107.899 32.484C107.899 29.964 108.835 27.672 110.707 25.608C111.691 24.528 113.071 23.628 114.847 22.908C116.647 22.188 118.735 21.732 121.111 21.54L121.507 22.548ZM114.631 36.912C116.095 36.912 117.307 36.288 118.267 35.04C119.251 33.792 119.743 32.496 119.743 31.152C119.743 28.248 119.083 26.004 117.763 24.42C115.915 24.732 114.355 25.56 113.083 26.904C111.811 28.248 111.175 29.772 111.175 31.476C111.175 33.18 111.475 34.512 112.075 35.472C112.699 36.432 113.551 36.912 114.631 36.912ZM126.135 39.324C126.711 36.3 126.999 33.552 126.999 31.08C126.999 28.608 126.903 26.868 126.711 25.86C126.543 24.828 126.351 23.964 126.135 23.268C125.943 22.572 125.835 22.176 125.811 22.08L126.675 21.54L129.591 22.944C129.783 24.336 129.879 25.5 129.879 26.436C129.879 27.372 129.867 28.056 129.843 28.488C130.851 26.52 131.967 24.948 133.191 23.772C134.415 22.596 135.543 22.008 136.575 22.008C138.567 22.008 139.563 23.364 139.563 26.076C139.563 28.188 139.359 30.72 138.951 33.672C138.543 36.6 138.291 38.472 138.195 39.288C137.907 39.624 137.379 39.792 136.611 39.792C136.443 39.792 136.359 39.756 136.359 39.684C136.719 36.612 136.899 34.044 136.899 31.98C136.899 28.212 136.191 26.328 134.775 26.328C133.695 26.328 132.579 27.204 131.427 28.956C130.299 30.708 129.375 33.18 128.655 36.372H128.583C128.247 37.524 127.971 38.388 127.755 38.964C127.419 39.3 127.059 39.468 126.675 39.468C126.315 39.468 126.135 39.42 126.135 39.324ZM155.189 25.752C154.925 26.856 154.397 27.852 153.605 28.74C152.813 29.628 151.913 30.336 150.905 30.864C149.057 31.824 147.437 32.436 146.045 32.7C146.141 33.9 146.453 34.788 146.981 35.364C147.509 35.94 148.145 36.228 148.889 36.228C151.001 36.228 152.909 34.452 154.613 30.9C154.637 30.756 154.757 30.684 154.973 30.684C155.189 30.684 155.513 30.852 155.945 31.188C154.913 33.684 153.641 35.748 152.129 37.38C150.641 38.988 149.153 39.792 147.665 39.792C146.177 39.792 145.013 39.252 144.173 38.172C143.357 37.092 142.949 35.64 142.949 33.816C142.949 31.296 143.633 28.968 145.001 26.832C145.745 25.68 146.789 24.672 148.133 23.808C149.501 22.92 151.121 22.26 152.993 21.828C154.457 22.332 155.189 23.64 155.189 25.752ZM150.977 24.672C149.969 24.672 148.925 25.26 147.845 26.436C146.765 27.588 146.165 29.196 146.045 31.26C148.037 30.732 149.561 29.964 150.617 28.956C151.697 27.924 152.237 26.916 152.237 25.932C152.237 25.572 152.129 25.272 151.913 25.032C151.697 24.792 151.385 24.672 150.977 24.672ZM172.173 21.936L172.137 22.152C169.713 26.136 167.661 31.692 165.981 38.82C164.637 44.58 161.973 48.048 157.989 49.224L157.089 48.576L157.953 45.084C158.433 45.156 158.841 45.192 159.177 45.192C161.433 45.192 163.101 43.344 164.181 39.648C163.653 39.984 163.233 40.152 162.921 40.152C162.609 40.152 162.357 40.104 162.165 40.008C161.253 38.112 160.449 35.676 159.753 32.7C159.057 29.7 158.709 27 158.709 24.6C158.709 23.592 158.769 22.776 158.889 22.152L159.789 21.54L162.669 22.98C162.237 24.78 162.021 26.808 162.021 29.064C162.021 31.296 162.333 34.104 162.957 37.488C163.653 35.064 164.733 32.412 166.197 29.532C167.661 26.628 169.101 24.216 170.517 22.296C170.973 21.96 171.489 21.792 172.065 21.792C172.137 21.792 172.173 21.84 172.173 21.936ZM184.288 21.54L187.168 22.98C187.408 24.636 187.528 26.052 187.528 27.228C187.528 28.38 187.516 29.196 187.492 29.676C188.476 27.228 189.676 25.224 191.092 23.664C192.532 22.104 193.828 21.324 194.98 21.324C197.164 21.324 198.256 22.68 198.256 25.392C198.256 27.888 197.392 30.48 195.664 33.168C194.8 34.512 193.576 35.772 191.992 36.948C190.432 38.124 188.632 39.06 186.592 39.756C186.184 42.636 185.644 45.48 184.972 48.288C184.564 48.696 184.06 48.9 183.46 48.9C183.268 48.9 183.172 48.84 183.172 48.72C184.252 43.704 184.792 38.844 184.792 34.14C184.792 29.436 184.324 25.44 183.388 22.152L184.288 21.54ZM187.132 35.688H187.096L186.88 37.74C189.496 36.828 191.476 35.448 192.82 33.6C194.188 31.752 194.872 29.964 194.872 28.236C194.872 26.508 194.272 25.644 193.072 25.644C192.112 25.644 191.056 26.532 189.904 28.308C188.752 30.084 187.828 32.544 187.132 35.688ZM202.723 13.368L205.603 14.736C205.867 16.512 205.999 18.444 205.999 20.532C205.999 22.596 205.879 24.804 205.639 27.156C205.135 31.908 204.415 36.024 203.479 39.504C203.335 39.672 203.083 39.816 202.723 39.936C202.363 40.056 202.075 40.116 201.859 40.116C201.643 40.116 201.535 40.056 201.535 39.936C202.663 35.136 203.227 30.396 203.227 25.716C203.227 21.036 202.759 17.112 201.823 13.944L202.723 13.368ZM219.506 22.512L222.422 21.252L223.286 21.756C222.494 24.084 222.098 26.772 222.098 29.82C222.098 31.116 222.206 32.916 222.422 35.22C222.638 37.524 222.842 39.084 223.034 39.9C223.034 39.972 222.854 40.008 222.494 40.008C222.134 40.008 221.786 39.84 221.45 39.504C220.682 37.728 220.07 35.112 219.614 31.656C218.606 34.056 217.394 36.012 215.978 37.524C214.586 39.036 213.326 39.792 212.198 39.792C210.038 39.792 208.958 38.436 208.958 35.724C208.958 34.164 209.27 32.664 209.894 31.224C210.518 29.784 211.358 28.524 212.414 27.444C214.526 25.308 216.89 23.664 219.506 22.512ZM214.142 35.472C214.91 35.472 215.762 34.86 216.698 33.636C217.658 32.388 218.51 30.636 219.254 28.38C219.23 28.044 219.218 27.396 219.218 26.436C219.218 25.476 219.23 24.768 219.254 24.312C217.19 25.488 215.522 26.748 214.25 28.092C212.978 29.412 212.342 30.972 212.342 32.772C212.342 34.572 212.942 35.472 214.142 35.472ZM227.596 39.324C228.172 36.3 228.46 33.552 228.46 31.08C228.46 28.608 228.364 26.868 228.172 25.86C228.004 24.828 227.812 23.964 227.596 23.268C227.404 22.572 227.296 22.176 227.272 22.08L228.136 21.54L231.052 22.944C231.244 24.336 231.34 25.5 231.34 26.436C231.34 27.372 231.328 28.056 231.304 28.488C232.312 26.52 233.428 24.948 234.652 23.772C235.876 22.596 237.004 22.008 238.036 22.008C240.028 22.008 241.024 23.364 241.024 26.076C241.024 28.188 240.82 30.72 240.412 33.672C240.004 36.6 239.752 38.472 239.656 39.288C239.368 39.624 238.84 39.792 238.072 39.792C237.904 39.792 237.82 39.756 237.82 39.684C238.18 36.612 238.36 34.044 238.36 31.98C238.36 28.212 237.652 26.328 236.236 26.328C235.156 26.328 234.04 27.204 232.888 28.956C231.76 30.708 230.836 33.18 230.116 36.372H230.044C229.708 37.524 229.432 38.388 229.216 38.964C228.88 39.3 228.52 39.468 228.136 39.468C227.776 39.468 227.596 39.42 227.596 39.324ZM245.526 39.324C246.102 36.3 246.39 33.552 246.39 31.08C246.39 28.608 246.294 26.868 246.102 25.86C245.934 24.828 245.742 23.964 245.526 23.268C245.334 22.572 245.226 22.176 245.202 22.08L246.066 21.54L248.982 22.944C249.174 24.336 249.27 25.5 249.27 26.436C249.27 27.372 249.258 28.056 249.234 28.488C250.242 26.52 251.358 24.948 252.582 23.772C253.806 22.596 254.934 22.008 255.966 22.008C257.958 22.008 258.954 23.364 258.954 26.076C258.954 28.188 258.75 30.72 258.342 33.672C257.934 36.6 257.682 38.472 257.586 39.288C257.298 39.624 256.77 39.792 256.002 39.792C255.834 39.792 255.75 39.756 255.75 39.684C256.11 36.612 256.29 34.044 256.29 31.98C256.29 28.212 255.582 26.328 254.166 26.328C253.086 26.328 251.97 27.204 250.818 28.956C249.69 30.708 248.766 33.18 248.046 36.372H247.974C247.638 37.524 247.362 38.388 247.146 38.964C246.81 39.3 246.45 39.468 246.066 39.468C245.706 39.468 245.526 39.42 245.526 39.324ZM267.163 22.944C267.211 23.664 267.235 24.408 267.235 25.176C267.235 29.352 266.503 33.948 265.039 38.964C264.703 39.3 264.247 39.468 263.671 39.468C263.551 39.468 263.467 39.456 263.419 39.432C263.395 39.408 263.395 39.372 263.419 39.324C263.995 35.892 264.283 32.736 264.283 29.856C264.283 26.976 263.983 24.384 263.383 22.08L264.247 21.54L267.163 22.944ZM265.687 19.38C265.087 19.38 264.619 19.176 264.283 18.768C263.971 18.36 263.815 17.844 263.815 17.22C263.815 16.596 264.091 16.056 264.643 15.6C265.195 15.12 265.999 14.808 267.055 14.664C267.775 15.264 268.135 15.984 268.135 16.824C268.135 17.64 267.883 18.276 267.379 18.732C266.875 19.164 266.311 19.38 265.687 19.38ZM271.787 39.324C272.363 36.3 272.651 33.552 272.651 31.08C272.651 28.608 272.555 26.868 272.363 25.86C272.195 24.828 272.003 23.964 271.787 23.268C271.595 22.572 271.487 22.176 271.463 22.08L272.327 21.54L275.243 22.944C275.435 24.336 275.531 25.5 275.531 26.436C275.531 27.372 275.519 28.056 275.495 28.488C276.503 26.52 277.619 24.948 278.843 23.772C280.067 22.596 281.195 22.008 282.227 22.008C284.219 22.008 285.215 23.364 285.215 26.076C285.215 28.188 285.011 30.72 284.603 33.672C284.195 36.6 283.943 38.472 283.847 39.288C283.559 39.624 283.031 39.792 282.263 39.792C282.095 39.792 282.011 39.756 282.011 39.684C282.371 36.612 282.551 34.044 282.551 31.98C282.551 28.212 281.843 26.328 280.427 26.328C279.347 26.328 278.231 27.204 277.079 28.956C275.951 30.708 275.027 33.18 274.307 36.372H274.235C273.899 37.524 273.623 38.388 273.407 38.964C273.071 39.3 272.711 39.468 272.327 39.468C271.967 39.468 271.787 39.42 271.787 39.324ZM298.465 22.512L300.553 21.54L301.453 22.152C301.477 22.632 301.489 23.628 301.489 25.14C301.489 28.908 300.889 33.444 299.689 38.748C299.113 41.388 297.925 43.74 296.125 45.804C295.213 46.836 294.109 47.664 292.813 48.288C291.517 48.912 290.125 49.224 288.637 49.224L287.773 48.576L288.601 45.084C289.705 45.396 290.713 45.552 291.625 45.552C296.089 45.552 298.357 40.932 298.429 31.692C297.397 34.092 296.245 35.988 294.973 37.38C293.701 38.748 292.441 39.432 291.193 39.432C290.257 39.432 289.537 39.06 289.033 38.316C288.529 37.548 288.277 36.456 288.277 35.04C288.277 33.6 288.589 32.208 289.213 30.864C289.837 29.496 290.665 28.296 291.697 27.264C293.641 25.272 295.897 23.688 298.465 22.512ZM298.357 28.056C298.309 27.264 298.165 26.064 297.925 24.456C295.717 25.416 294.037 26.724 292.885 28.38C291.733 30.012 291.157 31.56 291.157 33.024C291.157 33.768 291.313 34.368 291.625 34.824C291.961 35.256 292.429 35.472 293.029 35.472C293.845 35.472 294.757 34.824 295.765 33.528C296.773 32.232 297.637 30.408 298.357 28.056Z" fill="#30925D"/>
<defs>
<linearGradient id="paint0_linear_10_3" x1="30.8561" y1="0" x2="30.8561" y2="57" gradientUnits="userSpaceOnUse">
<stop stop-color="#03582A"/>
<stop offset="0.0001" stop-color="#024722"/>
<stop offset="0.385417" stop-color="#30925D"/>
<stop offset="0.692708" stop-color="#1E7445"/>
<stop offset="1" stop-color="#43B075"/>
</linearGradient>
</defs>
</svg>
