<svg width="78" height="75" viewBox="0 0 78 75" fill="none" xmlns="http://www.w3.org/2000/svg">
<g filter="url(#filter0_d_1_10)">
<path fill-rule="evenodd" clip-rule="evenodd" d="M59.5036 46C62.7793 40.3055 57.6473 13.3601 39.1945 13.3601C20.7417 13.3601 13.9346 33.296 16.92 45.8328C7.74814 23.8909 20.7417 8 39.1945 8C57.6473 8 71.296 28.7273 59.5036 46ZM67.405 25.5C73.9056 40.8493 67.405 64 38.4584 66.5C10.2716 64.0321 4.54948 41.4427 9.69862 26.095C7.43579 33.4336 8.3921 59.593 38.4584 59.593C69.405 59.593 69.745 31.0251 67.405 25.5ZM9.90499 25.5C9.83388 25.6815 9.76487 25.8802 9.69862 26.095C9.76558 25.8954 9.83438 25.6971 9.90499 25.5ZM49.097 52.224C49.289 52.224 49.385 52.188 49.385 52.116C49.025 49.188 48.845 45.54 48.845 41.172C48.845 35.292 49.397 30.936 50.501 28.104L47.441 26.628L46.505 27.204C46.505 27.228 46.493 27.264 46.469 27.312C42.869 34.344 40.253 40.056 38.621 44.448C36.653 37.944 34.565 32.196 32.357 27.204L31.421 26.628L27.713 28.104L27.965 29.688C28.469 32.904 28.721 36.516 28.721 40.524C28.721 42.612 28.625 44.628 28.433 46.572C28.241 48.516 28.061 49.884 27.893 50.676L27.641 51.864C27.641 51.96 27.761 52.008 28.001 52.008C28.241 52.008 28.553 51.936 28.937 51.792C29.321 51.672 29.609 51.516 29.801 51.324C30.281 49.5 30.749 46.656 31.205 42.792C31.661 38.904 31.997 35.22 32.213 31.74C34.397 38.7 35.801 45.048 36.425 50.784L39.845 52.26L40.637 51.684L40.205 50.064C41.261 44.4 43.169 38.364 45.929 31.956C45.857 33.108 45.821 34.272 45.821 35.448C45.821 39.96 46.445 45.372 47.693 51.684C48.005 52.044 48.473 52.224 49.097 52.224Z" fill="url(#paint0_linear_1_10)"/>
</g>
<defs>
<filter id="filter0_d_1_10" x="0" y="0" width="77.7122" height="74.5" filterUnits="userSpaceOnUse" color-interpolation-filters="sRGB">
<feFlood flood-opacity="0" result="BackgroundImageFix"/>
<feColorMatrix in="SourceAlpha" type="matrix" values="0 0 0 0 0 0 0 0 0 0 0 0 0 0 0 0 0 0 127 0" result="hardAlpha"/>
<feOffset/>
<feGaussianBlur stdDeviation="4"/>
<feComposite in2="hardAlpha" operator="out"/>
<feColorMatrix type="matrix" values="0 0 0 0 1 0 0 0 0 1 0 0 0 0 1 0 0 0 0.25 0"/>
<feBlend mode="normal" in2="BackgroundImageFix" result="effect1_dropShadow_1_10"/>
<feBlend mode="normal" in="SourceGraphic" in2="effect1_dropShadow_1_10" result="shape"/>
</filter>
<linearGradient id="paint0_linear_1_10" x1="38.8561" y1="8" x2="38.8561" y2="66.5" gradientUnits="userSpaceOnUse">
<stop stop-color="white"/>
<stop offset="0.0001" stop-color="white"/>
<stop offset="0.317708" stop-color="white"/>
<stop offset="0.385417" stop-color="white"/>
<stop offset="0.692708" stop-color="white"/>
<stop offset="0.854167" stop-color="#E7E7E7"/>
<stop offset="0.927083" stop-color="white"/>
<stop offset="1" stop-color="white"/>
</linearGradient>
</defs>
</svg>
